Coordinates
version=1
nRows=7
nColumns=40
inDegrees=yes

Units are S.I. units (second, meters, Newtons, ...)
Angles are in degrees.

endheader
time	pelvis_tilt	pelvis_list	pelvis_rotation	pelvis_tx	pelvis_ty	pelvis_tz	hip_flexion_r	hip_adduction_r	hip_rotation_r	knee_angle_r	knee_angle_r_beta	ankle_angle_r	subtalar_angle_r	mtp_angle_r	hip_flexion_l	hip_adduction_l	hip_rotation_l	knee_angle_l	knee_angle_l_beta	ankle_angle_l	subtalar_angle_l	mtp_angle_l	lumbar_extension	lumbar_bending	lumbar_rotation	arm_flex_r	arm_add_r	arm_rot_r	elbow_flex_r	pro_sup_r	wrist_flex_r	wrist_dev_r	arm_flex_l	arm_add_l	arm_rot_l	elbow_flex_l	pro_sup_l	wrist_flex_l	wrist_dev_l
     32.00500000	     -3.44623027	     -4.70966630	      6.93736425	      0.96069285	      0.91978710	      0.58206084	      3.97565295	      6.23367828	    -17.94459522	     17.68919867	     17.68919867	     19.05320802	     -4.80732291	     -0.70416168	     29.96626106	     -8.63465908	      2.57686916	     21.81996426	     21.81996426	      5.05737352	     -8.10881753	      6.61509656	     -9.57251972	      4.56131107	      3.01325303	     57.88245722	    -16.36063171	     -1.96856875	     92.23504788	     44.19504098	      0.00000000	      0.00000000	    -17.55096223	     -8.70227998	      4.12516402	     29.48946733	     44.45230233	      0.00000000	      0.00000000
     32.02421429	     -3.34743639	     -4.92580058	      7.20968669	      0.96059937	      0.91869626	      0.57936442	      3.23120940	      6.43054138	    -18.14347347	     17.23331918	     17.23331918	     19.37108779	     -4.57596982	     -0.80782077	     29.71754973	     -8.66488827	      2.49715680	     22.15387854	     22.15387854	      4.68042447	     -7.83811930	      6.12854829	     -9.50338011	      4.69298966	      2.98449456	     58.61409923	    -16.36174657	     -1.79913773	     92.91990157	     44.17939854	      0.00000000	      0.00000000	    -17.67554986	     -8.74380996	      4.22251851	     29.97008856	     44.44352848	      0.00000000	      0.00000000
     32.04342857	     -3.32432258	     -5.07985717	      7.43746630	      0.96055644	      0.91756027	      0.57656741	      2.67118458	      6.52721767	    -18.24745433	     16.99265954	     16.99265954	     19.67854200	     -4.50870909	     -0.91087199	     29.58431067	     -8.60408650	      2.55406030	     22.61390337	     22.61390337	      4.37360272	     -7.81239716	      5.69552150	     -9.32045958	      4.67410356	      2.98326070	     58.99672735	    -16.39845609	     -1.72632709	     93.34400088	     44.17208992	      0.00000000	      0.00000000	    -17.62512905	     -8.79815848	      4.28971362	     30.45712638	     44.44054010	      0.00000000	      0.00000000
     32.06264286	     -3.25412597	     -5.30894050	      7.62870566	      0.96056941	      0.91650344	      0.57360911	      2.04022609	      6.69946325	    -18.30663817	     16.70416603	     16.70416603	     19.94128948	     -4.37657760	     -1.03577515	     29.53715995	     -8.60268616	      2.85060988	     23.31668879	     23.31668879	      4.10535250	     -8.08297782	      4.84720824	     -9.25587683	      4.80468999	      3.04186430	     59.36489618	    -16.55000159	     -1.72222594	     93.95537859	     44.16767972	      0.00000000	      0.00000000	    -17.60403498	     -8.90371971	      4.41903272	     31.44724141	     44.43463128	      0.00000000	      0.00000000
     32.08185714	     -3.34311450	     -5.25789846	      7.79706035	      0.96054709	      0.91566773	      0.57032773	      1.64224859	      6.50292776	    -18.32377472	     16.60420227	     16.60420227	     20.21167117	     -4.48167252	     -1.08535618	     29.46272363	     -8.29165449	      2.96039909	     23.77096654	     23.77096654	      4.05057757	     -8.20650461	      4.66390075	     -9.00947072	      4.62432808	      2.97252012	     59.48137052	    -16.50787899	     -1.71581516	     94.04374591	     44.16727735	      0.00000000	      0.00000000	    -17.14282463	     -8.92075973	      4.43808530	     31.77385860	     44.44105422	      0.00000000	      0.00000000
     32.10107143	     -3.24636013	     -5.37538210	      7.88784817	      0.96060987	      0.91494369	      0.56699346	      1.04543548	      6.50036697	    -18.32802091	     16.47268243	     16.47268243	     20.35884638	     -4.44967562	     -1.12638471	     29.59301295	     -8.11634652	      3.49227094	     24.94970594	     24.94970594	      4.14574189	     -9.09829193	      4.11554162	     -9.06743376	      4.62669722	      3.11498349	     59.74169038	    -16.66332310	     -1.90120968	     94.24886366	     44.17649123	      0.00000000	      0.00000000	    -16.73044389	     -9.08762022	      4.48696855	     32.68682241	     44.44905789	      0.00000000	      0.00000000
     32.12028571	     -3.31175628	     -5.28952561	      7.95722145	      0.96068344	      0.91452695	      0.56335072	      0.60095068	      6.22908967	    -18.31125879	     16.35147172	     16.35147172	     20.44854131	     -4.47884445	     -1.11470312	     29.60572412	     -7.73757311	      3.75363956	     25.68157351	     25.68157351	      4.35493027	     -9.56625020	      3.82777240	     -8.94035223	      4.42142263	      3.13609224	     59.74750510	    -16.60114011	     -1.92309639	     94.25936009	     44.18035027	      0.00000000	      0.00000000	    -16.03340259	     -9.11757451	      4.50524173	     33.28372723	     44.46064581	      0.00000000	      0.00000000
